<mxfile host="app.diagrams.net" modified="2024-03-31T01:40:30.315Z" agent="Mozilla/5.0 (Windows NT 10.0; Win64; x64; rv:124.0) Gecko/20100101 Firefox/124.0" etag="pkOX_Nb_yynnpLzGdQq_" version="24.2.1" type="github">
  <diagram name="Page-1" id="fc2ac565-0d4e-3f0d-88b0-a54af1634ed7">
    <mxGraphModel dx="914" dy="470" grid="1" gridSize="10" guides="1" tooltips="1" connect="0" arrows="1" fold="1" page="1" pageScale="1.5" pageWidth="1169" pageHeight="827" background="none" math="0" shadow="0">
      <root>
        <mxCell id="0" style=";html=1;" />
        <mxCell id="1" style=";html=1;" parent="0" />
        <mxCell id="75" value="Aldi ← 20" style="align=left;strokeColor=#000000;html=1;" parent="1" vertex="1">
          <mxGeometry x="60" y="50" width="200" height="20" as="geometry" />
        </mxCell>
        <mxCell id="80" value="Budi ← Aldi -15" style="align=left;strokeColor=#000000;html=1;" parent="1" vertex="1">
          <mxGeometry x="60" y="70" width="200" height="20" as="geometry" />
        </mxCell>
        <mxCell id="85" value="Anto ←&lt;span style=&quot;white-space: pre;&quot;&gt;&#x9;&lt;/span&gt;2*(Aldi+Budi)" style="align=left;strokeColor=#000000;html=1;" parent="1" vertex="1">
          <mxGeometry x="60" y="90" width="200" height="20" as="geometry" />
        </mxCell>
        <mxCell id="90" value="Agung ← Aldi+Budi+Anto-5" style="align=left;strokeColor=#000000;html=1;" parent="1" vertex="1">
          <mxGeometry x="60" y="110" width="200" height="20" as="geometry" />
        </mxCell>
        <mxCell id="2" value="Perintah" style="strokeWidth=1;fontStyle=0;html=1;" parent="1" vertex="1">
          <mxGeometry x="60" y="30" width="200" height="20" as="geometry" />
        </mxCell>
        <mxCell id="4" value="&lt;div&gt;Aldi&lt;/div&gt;" style="strokeWidth=1;fontStyle=0;html=1;" parent="1" vertex="1">
          <mxGeometry x="260" y="30" width="70" height="20" as="geometry" />
        </mxCell>
        <mxCell id="67c90442a009f359-278" value="20" style="strokeWidth=1;fontStyle=0;html=1;" parent="1" vertex="1">
          <mxGeometry x="260" y="50" width="70" height="20" as="geometry" />
        </mxCell>
        <mxCell id="67c90442a009f359-279" value="" style="strokeWidth=1;fontStyle=0;html=1;" parent="1" vertex="1">
          <mxGeometry x="260" y="90" width="70" height="20" as="geometry" />
        </mxCell>
        <mxCell id="67c90442a009f359-298" value="Write(Budi,Anto,Agung)" style="align=left;strokeColor=#000000;html=1;" parent="1" vertex="1">
          <mxGeometry x="60" y="130" width="200" height="20" as="geometry" />
        </mxCell>
        <mxCell id="edeb_WLXguRkDUCl-4lO-101" value="" style="strokeWidth=1;fontStyle=0;html=1;" vertex="1" parent="1">
          <mxGeometry x="260" y="70" width="70" height="20" as="geometry" />
        </mxCell>
        <mxCell id="edeb_WLXguRkDUCl-4lO-102" value="" style="strokeWidth=1;fontStyle=0;html=1;" vertex="1" parent="1">
          <mxGeometry x="260" y="110" width="70" height="20" as="geometry" />
        </mxCell>
        <mxCell id="edeb_WLXguRkDUCl-4lO-108" value="" style="strokeWidth=1;fontStyle=0;html=1;" vertex="1" parent="1">
          <mxGeometry x="260" y="130" width="70" height="20" as="geometry" />
        </mxCell>
        <mxCell id="edeb_WLXguRkDUCl-4lO-110" value="Budi" style="strokeWidth=1;fontStyle=0;html=1;" vertex="1" parent="1">
          <mxGeometry x="330" y="30" width="70" height="20" as="geometry" />
        </mxCell>
        <mxCell id="edeb_WLXguRkDUCl-4lO-111" value="5" style="strokeWidth=1;fontStyle=0;html=1;" vertex="1" parent="1">
          <mxGeometry x="330" y="70" width="70" height="20" as="geometry" />
        </mxCell>
        <mxCell id="edeb_WLXguRkDUCl-4lO-112" value="" style="strokeWidth=1;fontStyle=0;html=1;" vertex="1" parent="1">
          <mxGeometry x="330" y="50" width="70" height="20" as="geometry" />
        </mxCell>
        <mxCell id="edeb_WLXguRkDUCl-4lO-113" value="" style="strokeWidth=1;fontStyle=0;html=1;" vertex="1" parent="1">
          <mxGeometry x="330" y="90" width="70" height="20" as="geometry" />
        </mxCell>
        <mxCell id="edeb_WLXguRkDUCl-4lO-114" value="Anto" style="strokeWidth=1;fontStyle=0;html=1;" vertex="1" parent="1">
          <mxGeometry x="400" y="30" width="70" height="20" as="geometry" />
        </mxCell>
        <mxCell id="edeb_WLXguRkDUCl-4lO-115" value="" style="strokeWidth=1;fontStyle=0;html=1;" vertex="1" parent="1">
          <mxGeometry x="400" y="70" width="70" height="20" as="geometry" />
        </mxCell>
        <mxCell id="edeb_WLXguRkDUCl-4lO-116" value="" style="strokeWidth=1;fontStyle=0;html=1;" vertex="1" parent="1">
          <mxGeometry x="400" y="50" width="70" height="20" as="geometry" />
        </mxCell>
        <mxCell id="edeb_WLXguRkDUCl-4lO-117" value="50" style="strokeWidth=1;fontStyle=0;html=1;" vertex="1" parent="1">
          <mxGeometry x="400" y="90" width="70" height="20" as="geometry" />
        </mxCell>
        <mxCell id="edeb_WLXguRkDUCl-4lO-118" value="Agung" style="strokeWidth=1;fontStyle=0;html=1;" vertex="1" parent="1">
          <mxGeometry x="470" y="30" width="70" height="20" as="geometry" />
        </mxCell>
        <mxCell id="edeb_WLXguRkDUCl-4lO-119" value="" style="strokeWidth=1;fontStyle=0;html=1;" vertex="1" parent="1">
          <mxGeometry x="470" y="70" width="70" height="20" as="geometry" />
        </mxCell>
        <mxCell id="edeb_WLXguRkDUCl-4lO-120" value="" style="strokeWidth=1;fontStyle=0;html=1;" vertex="1" parent="1">
          <mxGeometry x="470" y="50" width="70" height="20" as="geometry" />
        </mxCell>
        <mxCell id="edeb_WLXguRkDUCl-4lO-121" value="" style="strokeWidth=1;fontStyle=0;html=1;" vertex="1" parent="1">
          <mxGeometry x="470" y="90" width="70" height="20" as="geometry" />
        </mxCell>
        <mxCell id="edeb_WLXguRkDUCl-4lO-122" value="Output" style="strokeWidth=1;fontStyle=0;html=1;" vertex="1" parent="1">
          <mxGeometry x="540" y="30" width="70" height="20" as="geometry" />
        </mxCell>
        <mxCell id="edeb_WLXguRkDUCl-4lO-123" value="" style="strokeWidth=1;fontStyle=0;html=1;" vertex="1" parent="1">
          <mxGeometry x="540" y="70" width="70" height="20" as="geometry" />
        </mxCell>
        <mxCell id="edeb_WLXguRkDUCl-4lO-124" value="" style="strokeWidth=1;fontStyle=0;html=1;" vertex="1" parent="1">
          <mxGeometry x="540" y="50" width="70" height="20" as="geometry" />
        </mxCell>
        <mxCell id="edeb_WLXguRkDUCl-4lO-125" value="" style="strokeWidth=1;fontStyle=0;html=1;" vertex="1" parent="1">
          <mxGeometry x="540" y="90" width="70" height="20" as="geometry" />
        </mxCell>
        <mxCell id="edeb_WLXguRkDUCl-4lO-129" value="" style="strokeWidth=1;fontStyle=0;html=1;" vertex="1" parent="1">
          <mxGeometry x="330" y="110" width="70" height="20" as="geometry" />
        </mxCell>
        <mxCell id="edeb_WLXguRkDUCl-4lO-130" value="" style="strokeWidth=1;fontStyle=0;html=1;" vertex="1" parent="1">
          <mxGeometry x="400" y="110" width="70" height="20" as="geometry" />
        </mxCell>
        <mxCell id="edeb_WLXguRkDUCl-4lO-131" value="70" style="strokeWidth=1;fontStyle=0;html=1;" vertex="1" parent="1">
          <mxGeometry x="470" y="110" width="70" height="20" as="geometry" />
        </mxCell>
        <mxCell id="edeb_WLXguRkDUCl-4lO-132" value="" style="strokeWidth=1;fontStyle=0;html=1;" vertex="1" parent="1">
          <mxGeometry x="540" y="110" width="70" height="20" as="geometry" />
        </mxCell>
        <mxCell id="edeb_WLXguRkDUCl-4lO-133" value="5,50,70" style="strokeWidth=1;fontStyle=0;html=1;" vertex="1" parent="1">
          <mxGeometry x="540" y="130" width="70" height="20" as="geometry" />
        </mxCell>
        <mxCell id="edeb_WLXguRkDUCl-4lO-134" value="" style="strokeWidth=1;fontStyle=0;html=1;" vertex="1" parent="1">
          <mxGeometry x="470" y="130" width="70" height="20" as="geometry" />
        </mxCell>
        <mxCell id="edeb_WLXguRkDUCl-4lO-135" value="" style="strokeWidth=1;fontStyle=0;html=1;" vertex="1" parent="1">
          <mxGeometry x="330" y="130" width="70" height="20" as="geometry" />
        </mxCell>
        <mxCell id="edeb_WLXguRkDUCl-4lO-136" value="" style="strokeWidth=1;fontStyle=0;html=1;" vertex="1" parent="1">
          <mxGeometry x="400" y="130" width="70" height="20" as="geometry" />
        </mxCell>
        <mxCell id="edeb_WLXguRkDUCl-4lO-137" value="" style="text;whiteSpace=wrap;html=1;" vertex="1" parent="1">
          <mxGeometry x="1400" y="410" width="60" height="50" as="geometry" />
        </mxCell>
      </root>
    </mxGraphModel>
  </diagram>
</mxfile>
